<svg xmlns="http://www.w3.org/2000/svg" viewBox="0 0 720 520" role="img" aria-label="Kalium sulfuricum">
  <defs>
    <linearGradient id="bg" x1="0" x2="1" y1="0" y2="1">
      <stop offset="0" stop-color="#fff9ea"/>
      <stop offset="1" stop-color="#e7dcc4"/>
    </linearGradient>
    <radialGradient id="bowl" cx="45%" cy="18%" r="75%">
      <stop offset="0" stop-color="#c99455"/>
      <stop offset=".64" stop-color="#8a5b32"/>
      <stop offset="1" stop-color="#5c351c"/>
    </radialGradient>
    <filter id="shadow" x="-20%" y="-20%" width="140%" height="140%">
      <feDropShadow dx="0" dy="16" stdDeviation="18" flood-color="#5c4027" flood-opacity=".2"/>
    </filter>
  </defs>
  <rect width="720" height="520" fill="url(#bg)"/>
  <path d="M104 90c84-26 172-21 264 13 82 30 168 27 258-12" fill="none" stroke="#c9984c" stroke-width="4" opacity=".24"/>
  <ellipse cx="360" cy="401" rx="238" ry="44" fill="#8a5e35" opacity=".12"/>
  <g filter="url(#shadow)">
    <ellipse cx="360" cy="290" rx="205" ry="85" fill="url(#bowl)"/>
    <path d="M170 286c18 116 115 156 190 156s172-40 190-156c-42 52-334 52-380 0z" fill="#7b4c28"/>
    <ellipse cx="360" cy="278" rx="190" ry="69" fill="#d8a66a"/>
    <ellipse cx="360" cy="262" rx="158" ry="45" fill="#f6efe0"/>
  </g>
  <g fill="#fffdf5" stroke="#d5cfbf" stroke-width="2" opacity=".98">
    <circle cx="260" cy="250" r="18"/><circle cx="300" cy="232" r="20"/><circle cx="342" cy="242" r="18"/>
    <circle cx="382" cy="226" r="21"/><circle cx="422" cy="248" r="18"/><circle cx="466" cy="260" r="17"/>
    <circle cx="328" cy="270" r="19"/><circle cx="372" cy="268" r="20"/><circle cx="412" cy="280" r="16"/>
    <circle cx="286" cy="278" r="15"/><circle cx="454" cy="290" r="15"/>
  </g>
  <g fill="none" stroke="#879a69" stroke-width="10" stroke-linecap="round" opacity=".7">
    <path d="M522 238c48-62 91-82 128-86"/>
    <path d="M530 252c55-10 91 7 122 36"/>
    <path d="M118 240c42-42 89-56 139-47"/>
  </g>
  <g fill="#9aaa70" opacity=".75">
    <ellipse cx="610" cy="160" rx="48" ry="15" transform="rotate(-24 610 160)"/>
    <ellipse cx="625" cy="286" rx="44" ry="14" transform="rotate(29 625 286)"/>
    <ellipse cx="182" cy="194" rx="43" ry="14" transform="rotate(12 182 194)"/>
  </g>
</svg>
