<svg xmlns="http://www.w3.org/2000/svg" viewBox="0 0 720 520" role="img" aria-label="Melissentee">
  <defs>
    <linearGradient id="bg" x1="0" x2="1" y1="0" y2="1">
      <stop offset="0" stop-color="#fff9ea"/>
      <stop offset="1" stop-color="#e7dcc4"/>
    </linearGradient>
    <linearGradient id="tea" x1="0" x2="0" y1="0" y2="1">
      <stop offset="0" stop-color="#e7b65e" stop-opacity=".9"/>
      <stop offset="1" stop-color="#9d6428" stop-opacity=".95"/>
    </linearGradient>
    <filter id="shadow" x="-20%" y="-20%" width="140%" height="140%">
      <feDropShadow dx="0" dy="18" stdDeviation="20" flood-color="#5c4027" flood-opacity=".2"/>
    </filter>
  </defs>
  <rect width="720" height="520" fill="url(#bg)"/>
  <path d="M88 98c90-29 179-23 266 19 78 37 157 27 244-29" fill="none" stroke="#c9984c" stroke-width="4" opacity=".22"/>
  <ellipse cx="367" cy="418" rx="250" ry="44" fill="#8a5e35" opacity=".12"/>
  <g filter="url(#shadow)">
    <path d="M190 214h336l-38 202c-11 38-54 54-150 54s-139-16-150-54z" fill="#f9fff8" opacity=".58" stroke="#d8c9ad" stroke-width="8"/>
    <ellipse cx="358" cy="214" rx="170" ry="48" fill="#fffdf5" stroke="#d8c9ad" stroke-width="8"/>
    <ellipse cx="358" cy="224" rx="143" ry="34" fill="url(#tea)"/>
    <path d="M520 260c74-8 99 17 98 55-1 42-43 69-101 56" fill="none" stroke="#d8c9ad" stroke-width="20" stroke-linecap="round"/>
    <path d="M522 285c44-2 63 9 63 31 0 24-24 37-62 30" fill="none" stroke="#fffdf5" stroke-width="14" stroke-linecap="round" opacity=".8"/>
  </g>
  <g fill="#87a263" stroke="#657d45" stroke-width="3">
    <ellipse cx="252" cy="174" rx="46" ry="17" transform="rotate(-28 252 174)"/>
    <ellipse cx="310" cy="166" rx="45" ry="17" transform="rotate(21 310 166)"/>
    <ellipse cx="405" cy="167" rx="48" ry="18" transform="rotate(-18 405 167)"/>
    <ellipse cx="468" cy="187" rx="43" ry="16" transform="rotate(27 468 187)"/>
    <ellipse cx="354" cy="182" rx="42" ry="15" transform="rotate(-5 354 182)"/>
  </g>
  <g fill="none" stroke="#7d8d58" stroke-width="5" stroke-linecap="round" opacity=".8">
    <path d="M292 174c38 23 78 29 122 9"/>
    <path d="M357 184c4 26 2 49-5 70"/>
  </g>
  <g fill="none" stroke="#e8d5a4" stroke-width="6" stroke-linecap="round" opacity=".62">
    <path d="M298 118c-18-26 10-39-5-62"/>
    <path d="M362 112c-17-30 13-43-4-66"/>
    <path d="M428 126c-17-25 8-40-5-61"/>
  </g>
</svg>
