<svg xmlns="http://www.w3.org/2000/svg" viewBox="0 0 720 520" role="img" aria-label="Platinum metallicum">
  <defs>
    <linearGradient id="bg" x1="0" x2="1" y1="0" y2="1">
      <stop offset="0" stop-color="#fff9ea"/>
      <stop offset="1" stop-color="#eadfc8"/>
    </linearGradient>
    <radialGradient id="glow" cx="45%" cy="35%" r="55%">
      <stop offset="0" stop-color="#fffdf6" stop-opacity=".95"/>
      <stop offset=".72" stop-color="#d9c49f" stop-opacity=".18"/>
      <stop offset="1" stop-color="#8a5e35" stop-opacity=".08"/>
    </radialGradient>
    <linearGradient id="metal" x1=".1" x2=".9" y1=".05" y2=".95">
      <stop offset="0" stop-color="#f8fbff"/>
      <stop offset=".22" stop-color="#aeb9c5"/>
      <stop offset=".52" stop-color="#f2f5f8"/>
      <stop offset=".8" stop-color="#7b8793"/>
      <stop offset="1" stop-color="#d9e0e7"/>
    </linearGradient>
    <filter id="shadow" x="-20%" y="-20%" width="140%" height="140%">
      <feDropShadow dx="0" dy="18" stdDeviation="22" flood-color="#5c4027" flood-opacity=".22"/>
    </filter>
  </defs>
  <rect width="720" height="520" fill="url(#bg)"/>
  <rect width="720" height="520" fill="url(#glow)"/>
  <path d="M92 92c94-30 184-28 270 5 72 27 150 24 234-10" fill="none" stroke="#d0a45c" stroke-width="4" opacity=".3"/>
  <ellipse cx="360" cy="402" rx="210" ry="42" fill="#8a5e35" opacity=".12"/>
  <g filter="url(#shadow)" stroke="#67717b" stroke-width="4" stroke-linejoin="round">
    <path d="M195 326 282 162l128 45-28 170z" fill="url(#metal)"/>
    <path d="M282 162 354 88l140 80-84 39z" fill="#dbe2e8"/>
    <path d="M410 207 494 168l66 124-178 85z" fill="#aeb8c3"/>
    <path d="M195 326 382 377l-78 42-126-42z" fill="#d9e0e7"/>
    <path d="M304 419 382 377l178-85-70 105z" fill="#828d98"/>
    <path d="M282 162 304 419" fill="none" opacity=".36"/>
    <path d="M410 207 382 377" fill="none" opacity=".4"/>
    <path d="M354 88 382 377" fill="none" opacity=".25"/>
  </g>
  <g opacity=".55" fill="#fffdf7">
    <circle cx="318" cy="178" r="8"/>
    <circle cx="434" cy="214" r="6"/>
    <circle cx="292" cy="289" r="5"/>
  </g>
</svg>
